<svg width="287" height="82" viewBox="0 0 287 82" fill="none" xmlns="http://www.w3.org/2000/svg">
<rect width="287" height="82" fill="#FF0000"/>
<path d="M26.8086 43.084L35.2168 42.6445C35.334 45.3203 35.793 47.127 36.5938 48.0645C37.8828 49.5879 40.2656 50.3496 43.7422 50.3496C46.6328 50.3496 48.7227 49.832 50.0117 48.7969C51.3008 47.7617 51.9453 46.5117 51.9453 45.0469C51.9453 43.7773 51.418 42.7031 50.3633 41.8242C49.6211 41.1797 47.5801 40.1348 44.2402 38.6895C40.9199 37.2441 38.4883 36.043 36.9453 35.0859C35.4219 34.1094 34.2207 32.8496 33.3418 31.3066C32.4629 29.7637 32.0234 27.957 32.0234 25.8867C32.0234 22.2734 33.332 19.2754 35.9492 16.8926C38.5664 14.5098 42.3555 13.3184 47.3164 13.3184C52.3555 13.3184 56.252 14.5 59.0059 16.8633C61.7793 19.2266 63.3027 22.3711 63.5762 26.2969L55.1094 26.6777C54.8945 24.627 54.1523 23.0547 52.8828 21.9609C51.6133 20.8672 49.7383 20.3203 47.2578 20.3203C44.8164 20.3203 43.0684 20.75 42.0137 21.6094C40.9785 22.4687 40.4609 23.5527 40.4609 24.8613C40.4609 26.0918 40.9395 27.1074 41.8965 27.9082C42.8535 28.7285 44.9727 29.8516 48.2539 31.2773C53.1953 33.4062 56.3398 35.1348 57.6875 36.4629C59.6992 38.416 60.7051 40.9258 60.7051 43.9922C60.7051 47.7812 59.2012 51.0234 56.1934 53.7188C53.2051 56.3945 49.0352 57.7324 43.6836 57.7324C39.9922 57.7324 36.7891 57.1172 34.0742 55.8867C31.3789 54.6367 29.4746 52.9082 28.3613 50.7012C27.248 48.4941 26.7305 45.9551 26.8086 43.084ZM68.8672 25.8867H77.2754L73.4375 44.3145C72.9688 46.5215 72.7344 47.8984 72.7344 48.4453C72.7344 49.3438 73.0664 50.1152 73.7305 50.7598C74.3945 51.4043 75.2441 51.7266 76.2793 51.7266C77.0215 51.7266 77.7539 51.5898 78.4766 51.3164C79.1992 51.0234 79.9414 50.5938 80.7031 50.0273C81.4648 49.4414 82.1484 48.7773 82.7539 48.0352C83.3594 47.293 83.9258 46.3164 84.4531 45.1055C84.8242 44.207 85.2246 42.7422 85.6543 40.7109L88.7598 25.8867H97.168L90.6641 57H82.8125L83.6914 52.7812C80.2539 56.082 76.5137 57.7324 72.4707 57.7324C69.9121 57.7324 67.9004 57 66.4355 55.5352C64.9707 54.0703 64.2383 52.1074 64.2383 49.6465C64.2383 48.5723 64.5703 46.4336 65.2344 43.2305L68.8672 25.8867ZM102.342 25.8867H110.311L109.637 29.0801C111.336 27.6738 112.928 26.668 114.412 26.0625C115.896 25.457 117.488 25.1543 119.188 25.1543C122.449 25.1543 125.066 26.2773 127.039 28.5234C129.031 30.7695 130.027 34.1191 130.027 38.5723C130.027 44.1777 128.318 48.9141 124.9 52.7812C121.971 56.082 118.504 57.7324 114.5 57.7324C110.379 57.7324 107.264 56.0625 105.154 52.7227L101.785 68.8652H93.377L102.342 25.8867ZM107.41 43.7285C107.41 46.1504 107.996 48.0352 109.168 49.3828C110.359 50.7109 111.756 51.375 113.357 51.375C114.744 51.375 116.082 50.877 117.371 49.8809C118.66 48.8652 119.725 47.1953 120.564 44.8711C121.424 42.5273 121.854 40.3594 121.854 38.3672C121.854 36.043 121.297 34.2656 120.184 33.0352C119.07 31.7852 117.654 31.1602 115.936 31.1602C114.334 31.1602 112.869 31.7363 111.541 32.8887C110.232 34.0215 109.217 35.7012 108.494 37.9277C107.771 40.1348 107.41 42.0684 107.41 43.7285ZM135.816 25.8867H143.668L142.408 31.9219C145.338 27.4102 148.512 25.1543 151.93 25.1543C153.141 25.1543 154.439 25.457 155.826 26.0625L152.604 32.9473C151.842 32.6738 151.031 32.5371 150.172 32.5371C148.727 32.5371 147.252 33.084 145.748 34.1777C144.264 35.2715 143.102 36.7363 142.262 38.5723C141.422 40.3887 140.592 43.2793 139.771 47.2441L137.721 57H129.312L135.816 25.8867ZM180.453 44.0508H159.359C159.34 44.3828 159.33 44.6367 159.33 44.8125C159.33 46.8828 159.916 48.5527 161.088 49.8223C162.279 51.0918 163.725 51.7266 165.424 51.7266C168.217 51.7266 170.395 50.2812 171.957 47.3906L179.486 48.6504C178.021 51.6777 176.059 53.9531 173.598 55.4766C171.156 56.9805 168.412 57.7324 165.365 57.7324C161.186 57.7324 157.787 56.4141 155.17 53.7773C152.553 51.1211 151.244 47.6152 151.244 43.2598C151.244 39.002 152.426 35.2129 154.789 31.8926C158.012 27.4004 162.611 25.1543 168.588 25.1543C172.396 25.1543 175.424 26.3359 177.67 28.6992C179.916 31.043 181.039 34.334 181.039 38.5723C181.039 40.6035 180.844 42.4297 180.453 44.0508ZM173.363 38.9238C173.383 38.5527 173.393 38.2695 173.393 38.0742C173.393 35.7695 172.875 34.041 171.84 32.8887C170.805 31.7363 169.418 31.1602 167.68 31.1602C165.941 31.1602 164.379 31.8145 162.992 33.123C161.625 34.4316 160.697 36.3652 160.209 38.9238H173.363ZM186.799 25.8867H194.709L193.918 29.666C197.004 26.6582 200.246 25.1543 203.645 25.1543C205.988 25.1543 207.795 25.6426 209.064 26.6191C210.334 27.5957 211.145 28.9434 211.496 30.6621C212.57 29.0996 214.113 27.791 216.125 26.7363C218.137 25.6816 220.227 25.1543 222.395 25.1543C224.875 25.1543 226.809 25.8184 228.195 27.1465C229.582 28.4746 230.275 30.2324 230.275 32.4199C230.275 33.4941 230.002 35.3496 229.455 37.9863L225.471 57H217.062L221.047 37.9863C221.535 35.6035 221.779 34.2559 221.779 33.9434C221.779 33.084 221.516 32.4102 220.988 31.9219C220.48 31.4141 219.709 31.1602 218.674 31.1602C216.584 31.1602 214.719 32.2637 213.078 34.4707C211.887 36.0527 210.871 38.8555 210.031 42.8789L207.072 57H198.664L202.59 38.1914C203.039 36.0234 203.264 34.6172 203.264 33.9727C203.264 33.1523 202.98 32.4785 202.414 31.9512C201.867 31.4238 201.105 31.1602 200.129 31.1602C199.211 31.1602 198.264 31.4336 197.287 31.9805C196.311 32.5273 195.451 33.2793 194.709 34.2363C193.986 35.1934 193.361 36.4238 192.834 37.9277C192.6 38.6309 192.219 40.2227 191.691 42.7031L188.703 57H180.295L186.799 25.8867ZM261.23 44.0508H240.137C240.117 44.3828 240.107 44.6367 240.107 44.8125C240.107 46.8828 240.693 48.5527 241.865 49.8223C243.057 51.0918 244.502 51.7266 246.201 51.7266C248.994 51.7266 251.172 50.2812 252.734 47.3906L260.264 48.6504C258.799 51.6777 256.836 53.9531 254.375 55.4766C251.934 56.9805 249.189 57.7324 246.143 57.7324C241.963 57.7324 238.564 56.4141 235.947 53.7773C233.33 51.1211 232.021 47.6152 232.021 43.2598C232.021 39.002 233.203 35.2129 235.566 31.8926C238.789 27.4004 243.389 25.1543 249.365 25.1543C253.174 25.1543 256.201 26.3359 258.447 28.6992C260.693 31.043 261.816 34.334 261.816 38.5723C261.816 40.6035 261.621 42.4297 261.23 44.0508ZM254.141 38.9238C254.16 38.5527 254.17 38.2695 254.17 38.0742C254.17 35.7695 253.652 34.041 252.617 32.8887C251.582 31.7363 250.195 31.1602 248.457 31.1602C246.719 31.1602 245.156 31.8145 243.77 33.123C242.402 34.4316 241.475 36.3652 240.986 38.9238H254.141Z" fill="white"/>
</svg>
