<svg width="30" height="30" viewBox="0 0 30 30" fill="none" xmlns="http://www.w3.org/2000/svg">
<path d="M28.125 0C29.1625 0 30 0.8375 30 1.875V28.125C30 29.1625 29.1625 30 28.125 30H20.625V18.75H24.375L25.3125 14.0625H20.625V12.1875C20.625 10.3125 21.5625 9.375 23.4375 9.375H25.3125V4.6875H21.5625C18.1125 4.6875 15.9375 7.3875 15.9375 11.25V14.0625H12.1875V18.75H15.9375V30H1.875C1.37772 30 0.900805 29.8025 0.549175 29.4508C0.197544 29.0992 0 28.6223 0 28.125L0 1.875C0 0.8375 0.8375 0 1.875 0H28.125Z" fill="white"/>
</svg>
