<svg width="30" height="27" viewBox="0 0 30 27" fill="none" xmlns="http://www.w3.org/2000/svg">
<path d="M28.3752 13.9C29.5612 15.3343 30.1389 17.1758 29.9847 19.0306C29.8305 20.8854 28.9567 22.6062 27.5502 23.825C26.6752 24.575 26.3752 25.2 26.9252 26.2125C27.0252 26.4 27.0502 26.6375 27.1002 26.8625C26.2252 26.475 25.4127 25.8875 24.5502 25.8C23.6877 25.7125 22.7877 26.2 21.8877 26.3C20.5876 26.4621 19.2677 26.3343 18.0229 25.9258C16.778 25.5173 15.639 24.8383 14.6877 23.9375C10.8502 20.3875 11.4002 14.9375 15.8377 12.0375C19.7877 9.45 25.5877 10.3125 28.3627 13.9H28.3752ZM19.1127 5.1125C20.1013 6.38138 20.7005 7.90983 20.8377 9.5125C18.0627 9.65 15.6377 10.5 13.6752 12.4C12.6971 13.3116 11.9475 14.4407 11.4871 15.6959C11.0267 16.9512 10.8685 18.2972 11.0252 19.625C9.93768 19.4875 8.95018 19.3375 7.95018 19.25C7.60018 19.225 7.20018 19.2625 6.90018 19.425C5.93768 19.975 5.01268 20.5875 3.90018 21.275C4.11268 20.3625 4.23768 19.5625 4.47518 18.8C4.63768 18.2375 4.56268 17.925 4.03768 17.55C0.700178 15.1875 -0.712322 11.6625 0.350178 8.025C1.32518 4.65 3.72518 2.6125 6.97518 1.55C9.11885 0.841867 11.4274 0.803451 13.5934 1.43987C15.7594 2.07628 17.6803 3.35734 19.1002 5.1125H19.1127ZM17.0752 15.075C16.4877 15.075 16.0002 15.575 16.0252 16.15C16.0534 16.4071 16.1755 16.6448 16.3681 16.8175C16.5607 16.9901 16.8103 17.0856 17.0689 17.0856C17.3276 17.0856 17.5772 16.9901 17.7698 16.8175C17.9624 16.6448 18.0845 16.4071 18.1127 16.15C18.116 16.0111 18.0917 15.8729 18.0412 15.7434C17.9907 15.6139 17.915 15.4958 17.8185 15.3958C17.722 15.2958 17.6066 15.2159 17.479 15.1609C17.3514 15.1058 17.2141 15.0766 17.0752 15.075V15.075ZM23.5377 15.075C22.9877 15.075 22.5252 15.5125 22.5002 16.075C22.4752 16.6625 22.9377 17.1375 23.5252 17.1375C23.6565 17.1408 23.7872 17.1182 23.9098 17.071C24.0324 17.0238 24.1445 16.9529 24.2397 16.8624C24.3349 16.7718 24.4113 16.6634 24.4646 16.5433C24.5178 16.4232 24.5469 16.2938 24.5502 16.1625C24.5587 16.0238 24.5388 15.8848 24.4919 15.754C24.445 15.6231 24.372 15.5032 24.2773 15.4015C24.1826 15.2998 24.0682 15.2184 23.941 15.1622C23.8139 15.1061 23.6767 15.0764 23.5377 15.075ZM14.7127 7.0875C14.0252 7.1 13.4502 7.6875 13.4627 8.35C13.4659 8.51524 13.5019 8.6782 13.5685 8.82945C13.6351 8.9807 13.7311 9.11724 13.8508 9.23116C13.9705 9.34508 14.1117 9.43413 14.2661 9.49315C14.4204 9.55217 14.585 9.57999 14.7502 9.575C15.4502 9.575 16.0002 9.025 15.9877 8.325C15.9861 8.15978 15.9517 7.99652 15.8866 7.84466C15.8215 7.6928 15.7269 7.55535 15.6083 7.44027C15.4898 7.3252 15.3496 7.23476 15.1958 7.17421C15.0421 7.11366 14.8779 7.08419 14.7127 7.0875ZM6.78768 7.0875C6.62248 7.08082 6.45759 7.10697 6.30257 7.16445C6.14755 7.22193 6.00547 7.3096 5.88456 7.42237C5.76365 7.53514 5.66632 7.67077 5.59819 7.82142C5.53007 7.97207 5.4925 8.13474 5.48768 8.3C5.47518 9 6.01268 9.55 6.71268 9.575C7.41268 9.5875 8.00018 9.05 8.02518 8.375C8.02543 8.04202 7.89667 7.7219 7.66592 7.48183C7.43518 7.24177 7.1204 7.10043 6.78768 7.0875V7.0875Z" fill="white"/>
</svg>
